<svg xmlns="http://www.w3.org/2000/svg" fill="none" viewBox="0 0 370 542" height="542" width="370">
<path fill="#4CA998" d="M227.299 59.114C223.57 50.9756 218.733 43.3917 212.928 36.5772C192.046 11.5701 158.753 -2.15136 125.875 0.275679C92.3559 2.00928 56.7651 19.614 41.5528 51.0528C30.9952 71.7433 28.2214 96.7244 35.1038 118.542C21.0695 127.082 10.3514 140.135 4.70515 155.563C-7.48205 187.01 4.70515 225.409 33.1795 243.109C58.4727 259.856 96.1871 256.614 114.147 232.708C69.0043 248.094 25.4476 211.905 40.1919 168.833C50.1341 141.356 85.2048 129.333 111.937 144.251C121.879 149.322 130.876 157.799 137.941 169.267C138.998 155.762 133.806 141.269 123.933 130.001C105.921 109.588 79.978 103.841 56.4791 109.622C55.9677 101.951 55.6123 81.122 69.1257 61.7664C88.3686 34.1329 120.718 31.2031 129.464 30.3363C184.228 25.3262 218.865 73.3122 221.561 79.2844C222.289 80.888 222.957 82.5089 223.598 84.1385C225.67 91.0729 227.377 96.7418 227.377 96.7418L227.499 96.6898C229.521 105.04 230.344 113.635 229.943 122.217L233.696 122.772C236.067 113.354 236.927 103.62 236.245 93.9333C250.824 91.931 266.479 102.333 270.188 118.204C272.91 128.38 270.639 140.506 263.471 150.085C259.58 155.071 254.634 159.134 248.987 161.981C243.34 164.829 237.132 166.39 230.81 166.554C260.437 173.115 289.631 147.64 289.033 116.279C289.067 82.951 259.301 57.9698 227.299 59.114Z"></path>
<path fill="#4CA998" d="M264.676 212.589C265.612 212.537 266.591 212.494 267.536 212.433C262.272 199.385 257.007 186.34 251.743 173.297C249.143 179.876 244.107 189.914 234.112 195.773C213.708 207.744 193.009 190.408 165.505 196.926C155.901 199.206 141.954 205.23 127.531 223.424L144.572 265.655C168.782 241.853 201.997 227.516 207.744 225.123C225.874 217.749 245.125 213.511 264.676 212.589Z"></path>
<path fill="#4CA998" d="M219.663 541.115C177.19 541.115 147.372 527.298 131.093 500.046L131.033 499.942L127.167 486.134V486.03C126.681 469.023 135.176 456.932 152.408 450.075L152.538 450.023L158.372 449.642C158.718 449.642 159.082 449.59 159.446 449.59C167.898 449.59 174.962 458.379 181.021 476.461C190.417 484.539 201.122 488.639 212.85 488.639C213.829 488.639 214.835 488.639 215.832 488.561C234.147 487.824 244.436 478.238 247.296 459.237L246.837 457.044V456.966C246.378 439.708 218.389 413.626 163.624 379.509C150.198 369.489 127.635 348.53 126.647 320.272C125.216 279.047 178.854 245.727 210.726 232.578C228.031 225.547 246.407 221.51 265.066 220.642C270.527 220.321 276.17 219.983 282.124 219.983C292.604 219.983 308.518 220.92 325.707 229.007C338.963 235.307 350.646 244.488 359.902 255.878L359.998 255.999L360.05 256.138C362.78 263.939 363.898 268.273 363.898 271.151C364.869 291.174 355.378 303.673 335.684 308.25C335.183 308.381 334.667 308.445 334.15 308.44C329.582 308.44 323.748 303.699 316.744 294.329C307.426 283.06 293.974 277.331 276.768 277.331C274.297 277.331 271.706 277.452 269.07 277.686C258.417 278.605 250.668 281.942 246.022 287.611C241.376 293.28 239.738 301.202 240.891 311.465C241.359 322.543 266.652 348.634 316.086 389.061C337.4 408.642 348.677 427.521 349.648 445.195C351.087 476.053 336.204 501.745 304.158 523.753H304.106H304.054C285.722 532.959 262.76 538.584 235.811 540.456C230.238 540.872 224.777 541.08 219.585 541.08L219.663 541.115Z"></path>
<path fill="#4CA998" d="M328.325 330.414C327.413 329.714 326.342 329.251 325.207 329.068C324.072 328.885 322.909 328.987 321.824 329.365C320.963 329.707 320.209 330.272 319.639 331.003C319 331.799 318.464 332.673 318.045 333.603L316.762 336.438C316.405 337.269 315.951 338.054 315.409 338.778C312.926 342.045 309.817 344.785 306.265 346.839C302.453 349.052 298.375 350.77 294.13 351.954C288.523 353.553 282.76 354.544 276.941 354.909C271.191 355.295 265.423 355.361 259.666 355.109C254.066 354.854 248.842 354.43 243.994 353.834C239.146 353.239 235.069 352.78 231.763 352.456C226.886 351.919 221.94 351.436 216.924 351.009C211.809 350.59 206.677 350.433 201.547 350.541C196.2 350.654 190.862 351.041 185.554 351.702C179.954 352.397 174.418 353.536 168.998 355.109C164.352 356.441 159.833 358.181 155.494 360.309C151.13 362.428 146.984 364.968 143.116 367.894C139.329 370.75 135.895 374.047 132.888 377.715C129.96 381.284 127.558 385.254 125.754 389.503C121.938 398.544 121.401 408.635 124.237 418.03C124.483 418.706 124.797 419.357 125.173 419.971C125.74 420.952 126.424 421.86 127.21 422.676C128.05 423.57 129.035 424.317 130.122 424.886C131.19 425.448 132.437 425.564 133.59 425.207C133.897 425.121 134.184 424.973 134.431 424.772C134.679 424.571 134.882 424.32 135.029 424.037C137.866 418.922 140.486 414.525 142.89 410.844C145.038 407.515 147.401 404.33 149.963 401.309C152.092 398.798 154.467 396.507 157.054 394.47C159.487 392.584 162.1 390.944 164.855 389.573C167.882 388.089 171.007 386.815 174.208 385.759C177.629 384.603 181.564 383.392 186.014 382.127C196.367 379.122 207.141 377.822 217.912 378.278C217.987 378.238 218.066 378.204 218.146 378.174C222.437 376.666 226.814 375.149 231.217 373.988C235.239 372.921 239.885 372.713 243.586 374.655C244.769 374.45 245.966 374.337 247.166 374.317C249.189 374.317 251.266 374.355 253.399 374.43L259.761 374.759C261.721 374.871 263.686 374.871 265.647 374.759C270.331 374.494 274.996 373.962 279.619 373.164C284.67 372.317 289.668 371.182 294.589 369.766C299.595 368.322 304.498 366.541 309.264 364.435C313.877 362.444 318.241 359.919 322.266 356.912C325.753 354.356 328.657 351.088 330.786 347.325C331.754 345.587 332.359 343.671 332.566 341.693C332.773 339.714 332.578 337.714 331.991 335.814C331.393 333.661 330.105 331.764 328.325 330.414Z"></path>
</svg>